<?xml version="1.0" encoding="UTF-8"?>
<svg xmlns="http://www.w3.org/2000/svg" xmlns:xlink="http://www.w3.org/1999/xlink" width="1190.25pt" height="1683.749945pt" viewBox="0 0 1190.25 1683.749945" version="1.2">
<g id="surface1">
<path style=" stroke:none;fill-rule:nonzero;fill:rgb(14.898682%,16.468811%,17.649841%);fill-opacity:1;" d="M 705.984375 1524.710938 C 705.984375 1524.710938 666.140625 1467.667969 699.195312 1442.195312 C 732.226562 1416.722656 810.203125 1446.902344 851.105469 1435.40625 C 871.566406 1429.636719 905.792969 1397.835938 891.027344 1342.269531 C 885.070312 1319.921875 912.332031 1302.320312 910.988281 1293.242188 C 909.144531 1280.746094 903.757812 1262.167969 903.757812 1262.167969 C 903.757812 1262.167969 961.351562 1239.902344 969.988281 1226.511719 C 986.292969 1201.226562 896.042969 1167.070312 900.363281 1046.503906 C 900.746094 1035.613281 917.726562 1031.882812 907.167969 1002.828125 C 902.210938 989.1875 905.46875 940.058594 879.984375 885.164062 C 844.253906 808.210938 739.410156 718.226562 606.546875 718.226562 C 409.566406 718.226562 308.742188 795.609375 288.832031 970.085938 C 261.132812 1212.929688 391.800781 1184.0625 422.375 1353.886719 C 438.347656 1442.710938 393.488281 1524.707031 393.488281 1524.707031 L 705.976562 1524.707031 "/>
<path style=" stroke:none;fill-rule:nonzero;fill:rgb(14.898682%,16.468811%,17.649841%);fill-opacity:1;" d="M 525.101562 1525.359375 L 499.296875 1525.359375 L 499.296875 1192.773438 L 525.101562 1192.773438 Z M 525.101562 1525.359375 "/>
<path style=" stroke:none;fill-rule:nonzero;fill:rgb(32.939148%,77.249146%,73.329163%);fill-opacity:1;" d="M 521.351562 1525.359375 L 521.351562 1196.519531 L 503.066406 1196.519531 L 503.066406 1525.359375 L 495.546875 1525.359375 L 495.546875 1189.003906 L 528.871094 1189.003906 L 528.871094 1525.359375 L 521.351562 1525.359375 "/>
<path style=" stroke:none;fill-rule:nonzero;fill:rgb(14.898682%,16.468811%,17.649841%);fill-opacity:1;" d="M 491.800781 1525.359375 L 465.996094 1525.359375 L 465.996094 1192.773438 L 491.800781 1192.773438 Z M 491.800781 1525.359375 "/>
<path style=" stroke:none;fill-rule:nonzero;fill:rgb(32.939148%,77.249146%,73.329163%);fill-opacity:1;" d="M 488.03125 1525.359375 L 488.03125 1196.519531 L 469.742188 1196.519531 L 469.742188 1525.359375 L 462.226562 1525.359375 L 462.226562 1189.003906 L 495.546875 1189.003906 L 495.546875 1525.359375 L 488.03125 1525.359375 "/>
<path style=" stroke:none;fill-rule:nonzero;fill:rgb(14.898682%,16.468811%,17.649841%);fill-opacity:1;" d="M 508.460938 1525.359375 L 482.65625 1525.359375 L 482.65625 1192.773438 L 508.460938 1192.773438 Z M 508.460938 1525.359375 "/>
<path style=" stroke:none;fill-rule:nonzero;fill:rgb(32.939148%,77.249146%,73.329163%);fill-opacity:1;" d="M 504.691406 1525.359375 L 504.691406 1196.519531 L 486.40625 1196.519531 L 486.40625 1525.359375 L 478.886719 1525.359375 L 478.886719 1189.003906 L 512.210938 1189.003906 L 512.210938 1525.359375 L 504.691406 1525.359375 "/>
<path style=" stroke:none;fill-rule:nonzero;fill:rgb(14.898682%,16.468811%,17.649841%);fill-opacity:1;" d="M 622.988281 1121.460938 C 622.988281 1121.460938 638.191406 1157.199219 617.054688 1180.878906 C 595.933594 1204.558594 544.324219 1242.609375 537.554688 1278.121094 C 530.808594 1313.652344 535.015625 1344.101562 529.101562 1348.328125 C 523.1875 1352.554688 482.59375 1366.074219 481.761719 1348.328125 C 480.90625 1330.5625 470.554688 1269.707031 479.511719 1234.15625 C 485.988281 1208.496094 515.582031 1179.171875 515.582031 1179.171875 L 622.988281 1121.460938 "/>
<path style=" stroke:none;fill-rule:nonzero;fill:rgb(32.939148%,77.249146%,73.329163%);fill-opacity:1;" d="M 622.988281 1121.460938 L 626.382812 1120.023438 C 626.464844 1120.273438 631.964844 1133.0625 631.964844 1148.972656 C 631.964844 1154.511719 631.296875 1160.429688 629.445312 1166.320312 C 627.589844 1172.214844 624.53125 1178.066406 619.824219 1183.335938 C 614.367188 1189.441406 607.117188 1196.292969 599.203125 1203.746094 C 587.332031 1214.933594 573.921875 1227.46875 562.945312 1240.382812 C 551.925781 1253.273438 543.492188 1266.582031 541.199219 1278.828125 C 537.867188 1296.261719 537.242188 1312.527344 536.722656 1325.128906 C 536.453125 1331.417969 536.203125 1336.769531 535.640625 1341.058594 C 535.347656 1343.207031 534.972656 1345.101562 534.371094 1346.789062 C 534.078125 1347.640625 533.703125 1348.453125 533.222656 1349.222656 C 532.722656 1349.972656 532.097656 1350.722656 531.246094 1351.328125 C 530.539062 1351.847656 529.726562 1352.285156 528.765625 1352.765625 C 525.457031 1354.410156 520.207031 1356.390625 514.210938 1358.035156 C 508.230469 1359.660156 501.589844 1360.929688 495.546875 1360.929688 C 491.402344 1360.910156 487.488281 1360.367188 484.09375 1358.492188 C 482.425781 1357.554688 480.929688 1356.222656 479.84375 1354.472656 C 478.761719 1352.765625 478.15625 1350.683594 478.054688 1348.496094 C 477.929688 1345.558594 477.492188 1341.144531 476.90625 1335.769531 C 475.179688 1319.585938 472.203125 1294.679688 472.203125 1270.9375 C 472.203125 1257.441406 473.160156 1244.339844 475.929688 1233.261719 C 477.679688 1226.34375 480.886719 1219.453125 484.675781 1212.890625 C 496.070312 1193.273438 512.875 1176.671875 512.980469 1176.546875 L 513.355469 1176.171875 L 624.800781 1116.296875 L 626.382812 1120.023438 L 622.988281 1121.460938 L 624.738281 1124.730469 L 517.332031 1182.441406 L 515.582031 1179.171875 L 518.1875 1181.796875 L 518.105469 1181.878906 C 517.3125 1182.671875 509.980469 1190.085938 502.128906 1200.289062 C 498.214844 1205.394531 494.152344 1211.203125 490.738281 1217.160156 C 487.320312 1223.160156 484.550781 1229.324219 483.09375 1235.050781 C 480.554688 1245.195312 479.574219 1257.816406 479.59375 1270.9375 C 479.59375 1286.347656 480.886719 1302.488281 482.28125 1316.316406 C 482.96875 1323.230469 483.675781 1329.5625 484.261719 1334.980469 C 484.84375 1340.394531 485.28125 1344.851562 485.445312 1348.140625 C 485.507812 1349.285156 485.757812 1349.996094 486.113281 1350.578125 C 486.382812 1350.996094 486.71875 1351.347656 487.21875 1351.722656 C 487.945312 1352.246094 489.03125 1352.722656 490.464844 1353.058594 C 491.882812 1353.390625 493.632812 1353.554688 495.546875 1353.554688 C 501.253906 1353.554688 508.503906 1352.078125 514.625 1350.246094 C 517.6875 1349.308594 520.476562 1348.328125 522.664062 1347.414062 C 523.769531 1346.953125 524.726562 1346.539062 525.476562 1346.164062 C 526.207031 1345.789062 526.769531 1345.453125 526.957031 1345.308594 L 527.308594 1345.808594 L 526.914062 1345.351562 L 526.957031 1345.308594 L 527.308594 1345.808594 L 526.914062 1345.351562 L 526.996094 1345.453125 L 526.894531 1345.371094 L 526.914062 1345.351562 L 526.996094 1345.453125 L 526.894531 1345.371094 C 526.933594 1345.351562 527.308594 1344.765625 527.621094 1343.644531 C 528.183594 1341.683594 528.601562 1338.3125 528.871094 1334.0625 C 529.289062 1327.667969 529.476562 1319.234375 530.078125 1309.550781 C 530.703125 1299.886719 531.746094 1288.949219 533.933594 1277.433594 C 535.785156 1267.8125 540.535156 1258.378906 546.824219 1249.191406 C 556.28125 1235.40625 569.253906 1222.117188 581.835938 1210.015625 C 594.414062 1197.9375 606.617188 1187.023438 614.304688 1178.421875 C 618.261719 1173.984375 620.800781 1169.113281 622.40625 1164.09375 C 623.988281 1159.074219 624.59375 1153.910156 624.59375 1148.972656 C 624.59375 1141.871094 623.320312 1135.289062 622.050781 1130.519531 C 621.425781 1128.125 620.800781 1126.1875 620.324219 1124.875 C 620.09375 1124.230469 619.90625 1123.710938 619.761719 1123.375 L 619.613281 1123 L 619.574219 1122.917969 L 620.65625 1122.460938 L 619.574219 1122.917969 L 620.65625 1122.460938 L 619.574219 1122.917969 L 622.988281 1121.460938 L 624.738281 1124.730469 L 622.988281 1121.460938 "/>
<path style=" stroke:none;fill-rule:nonzero;fill:rgb(14.898682%,16.468811%,17.649841%);fill-opacity:1;" d="M 363.566406 1086.554688 C 363.566406 1086.554688 320.957031 1170.902344 434.734375 1204.332031 C 488.175781 1220.054688 543.636719 1188.648438 562.546875 1154.574219 C 571.273438 1138.871094 621.925781 1124.355469 628.488281 1113.898438 C 660.371094 1063.039062 581.730469 1052.460938 558.777344 1058.6875 C 535.808594 1064.894531 363.566406 1086.554688 363.566406 1086.554688 "/>
<path style=" stroke:none;fill-rule:nonzero;fill:rgb(32.939148%,77.249146%,73.329163%);fill-opacity:1;" d="M 363.566406 1086.554688 L 366.878906 1088.21875 L 366.359375 1087.96875 L 366.878906 1088.21875 L 366.359375 1087.96875 L 366.878906 1088.21875 C 366.753906 1088.386719 359.421875 1103.257812 359.445312 1122.335938 C 359.464844 1135.269531 362.734375 1150.054688 373.753906 1164.050781 C 384.789062 1178.027344 403.761719 1191.375 435.796875 1200.8125 C 445.167969 1203.558594 454.625 1204.808594 463.933594 1204.808594 C 484.824219 1204.808594 505.003906 1198.5 521.8125 1188.792969 C 538.640625 1179.089844 552.011719 1165.96875 559.320312 1152.785156 C 560.738281 1150.265625 562.777344 1148.054688 565.214844 1145.953125 C 569.484375 1142.265625 575.085938 1138.914062 581.1875 1135.644531 C 590.351562 1130.789062 600.703125 1126.230469 609.199219 1122.085938 C 613.449219 1120.003906 617.242188 1118.023438 620.113281 1116.234375 C 621.550781 1115.335938 622.757812 1114.484375 623.65625 1113.710938 C 624.550781 1112.964844 625.132812 1112.296875 625.363281 1111.921875 C 630.359375 1103.964844 632.296875 1097.34375 632.296875 1091.949219 C 632.296875 1089.199219 631.796875 1086.742188 630.902344 1084.449219 C 629.339844 1080.492188 626.464844 1077.015625 622.550781 1073.976562 C 616.679688 1069.433594 608.453125 1066.0625 599.746094 1063.914062 C 591.019531 1061.75 581.8125 1060.769531 574.023438 1060.769531 C 568.152344 1060.769531 563.046875 1061.332031 559.738281 1062.25 C 556.59375 1063.082031 551.386719 1064.101562 544.429688 1065.3125 C 520.125 1069.476562 475.074219 1075.683594 436.046875 1080.890625 C 397.015625 1086.074219 364.046875 1090.21875 364.027344 1090.21875 L 363.566406 1086.554688 L 366.878906 1088.21875 L 363.566406 1086.554688 L 363.109375 1082.890625 C 363.109375 1082.890625 365.796875 1082.535156 370.542969 1081.929688 C 387.183594 1079.828125 429.089844 1074.453125 469.328125 1068.933594 C 489.46875 1066.164062 509.167969 1063.375 525.082031 1060.9375 C 533.035156 1059.707031 540.035156 1058.582031 545.65625 1057.585938 C 551.261719 1056.605469 555.53125 1055.730469 557.800781 1055.125 C 562.109375 1053.960938 567.671875 1053.398438 574.023438 1053.378906 C 586.8125 1053.398438 602.660156 1055.730469 615.761719 1061.542969 C 622.300781 1064.457031 628.195312 1068.246094 632.570312 1073.265625 C 636.941406 1078.285156 639.710938 1084.636719 639.691406 1091.949219 C 639.691406 1099.132812 637.128906 1107.089844 631.609375 1115.859375 C 630.320312 1117.878906 628.488281 1119.417969 626.257812 1121.023438 C 622.34375 1123.75 617.09375 1126.457031 611.199219 1129.332031 C 602.347656 1133.601562 592.058594 1138.144531 583.394531 1142.851562 C 579.085938 1145.183594 575.167969 1147.578125 572.085938 1149.890625 C 569.003906 1152.222656 566.796875 1154.511719 565.796875 1156.367188 C 557.632812 1171.027344 543.324219 1184.878906 525.519531 1195.1875 C 507.691406 1205.476562 486.320312 1212.203125 463.933594 1212.203125 C 453.976562 1212.203125 443.792969 1210.851562 433.691406 1207.890625 C 400.660156 1198.1875 380.144531 1184.085938 367.941406 1168.632812 C 355.757812 1153.160156 352.050781 1136.496094 352.070312 1122.335938 C 352.09375 1101.070312 360.132812 1085.179688 360.277344 1084.886719 L 361.152344 1083.140625 L 363.109375 1082.890625 L 363.566406 1086.554688 "/>
<path style=" stroke:none;fill-rule:nonzero;fill:rgb(14.898682%,16.468811%,17.649841%);fill-opacity:1;" d="M 340.949219 933.394531 C 340.949219 873.027344 388.289062 823.71875 447.875 820.5625 C 460.390625 792.730469 488.34375 773.34375 520.851562 773.34375 C 542.074219 773.34375 561.339844 781.617188 575.667969 795.082031 C 589.976562 781.617188 609.242188 773.34375 630.464844 773.34375 C 665.765625 773.34375 695.714844 796.210938 706.339844 827.949219 C 711.378906 826.46875 716.6875 825.65625 722.1875 825.65625 C 753.136719 825.65625 778.234375 850.746094 778.234375 881.691406 C 778.234375 884.550781 778.003906 887.363281 777.585938 890.113281 C 799.289062 901.882812 814.011719 924.875 814.011719 951.285156 C 814.011719 989.707031 782.855469 1020.867188 744.410156 1020.867188 C 744.410156 1051.816406 719.335938 1076.910156 688.386719 1076.910156 C 678.617188 1076.910156 669.453125 1074.414062 661.457031 1070.019531 C 646.773438 1087.011719 625.09375 1097.78125 600.871094 1097.78125 C 589.894531 1097.78125 579.417969 1095.574219 569.902344 1091.554688 C 557.714844 1120.210938 529.308594 1140.289062 496.214844 1140.289062 C 478.699219 1140.289062 462.539062 1134.664062 449.355469 1125.125 C 446.542969 1125.375 443.710938 1125.523438 440.835938 1125.523438 C 387.769531 1125.523438 344.761719 1082.515625 344.761719 1029.46875 C 344.761719 1014.285156 348.28125 999.933594 354.550781 987.1875 C 345.886719 971.195312 340.949219 952.867188 340.949219 933.394531 "/>
<path style=" stroke:none;fill-rule:nonzero;fill:rgb(32.939148%,77.249146%,73.329163%);fill-opacity:1;" d="M 340.949219 933.394531 L 337.261719 933.394531 C 337.261719 871.050781 386.144531 820.140625 447.667969 816.867188 L 447.875 820.5625 L 444.5 819.039062 C 457.601562 789.933594 486.84375 769.652344 520.851562 769.652344 C 543.035156 769.652344 563.214844 778.308594 578.191406 792.394531 L 575.667969 795.082031 L 573.128906 792.394531 C 588.101562 778.308594 608.285156 769.652344 630.464844 769.652344 C 667.414062 769.652344 698.714844 793.578125 709.835938 826.769531 L 706.339844 827.949219 L 705.296875 824.402344 C 710.648438 822.824219 716.3125 821.960938 722.1875 821.960938 C 755.175781 821.96875 781.917969 848.703125 781.917969 881.691406 C 781.917969 884.742188 781.691406 887.71875 781.253906 890.65625 L 777.585938 890.113281 L 779.359375 886.859375 C 802.183594 899.257812 817.699219 923.457031 817.699219 951.285156 C 817.699219 991.75 784.898438 1024.550781 744.410156 1024.550781 L 744.410156 1020.867188 L 748.117188 1020.867188 C 748.117188 1053.855469 721.375 1080.597656 688.386719 1080.597656 C 677.992188 1080.597656 668.183594 1077.933594 659.6875 1073.265625 L 661.457031 1070.019531 L 664.246094 1072.433594 C 648.917969 1090.199219 626.195312 1101.464844 600.871094 1101.464844 C 589.394531 1101.464844 578.441406 1099.15625 568.464844 1094.96875 L 569.902344 1091.554688 L 573.296875 1093.011719 C 560.570312 1122.980469 530.851562 1143.996094 496.214844 1143.996094 C 477.90625 1143.996094 460.953125 1138.101562 447.1875 1128.125 L 449.355469 1125.125 L 449.6875 1128.792969 C 446.792969 1129.0625 443.835938 1129.207031 440.835938 1129.207031 C 385.726562 1129.207031 341.074219 1084.554688 341.074219 1029.46875 C 341.074219 1013.722656 344.738281 998.808594 351.238281 985.5625 L 354.550781 987.1875 L 351.300781 988.9375 C 342.34375 972.421875 337.261719 953.492188 337.261719 933.394531 L 344.65625 933.394531 C 344.65625 952.242188 349.40625 969.964844 357.796875 985.417969 L 358.714844 987.105469 L 357.859375 988.8125 C 351.84375 1001.082031 348.46875 1014.867188 348.46875 1029.46875 C 348.46875 1054.980469 358.796875 1078.035156 375.523438 1094.761719 C 392.246094 1111.503906 415.300781 1121.816406 440.835938 1121.835938 C 443.585938 1121.835938 446.3125 1121.691406 449.042969 1121.441406 L 450.394531 1121.316406 L 451.519531 1122.128906 C 464.097656 1131.226562 479.511719 1136.601562 496.214844 1136.601562 C 527.789062 1136.601562 554.863281 1117.441406 566.503906 1090.117188 L 567.941406 1086.722656 L 571.316406 1088.15625 C 580.417969 1091.96875 590.394531 1094.09375 600.871094 1094.09375 C 623.988281 1094.09375 644.648438 1083.828125 658.664062 1067.601562 L 660.601562 1065.332031 L 663.226562 1066.769531 C 670.703125 1070.871094 679.242188 1073.203125 688.386719 1073.203125 C 702.839844 1073.203125 715.917969 1067.351562 725.394531 1057.875 C 734.871094 1048.398438 740.722656 1035.339844 740.722656 1020.867188 L 740.722656 1017.160156 L 744.410156 1017.160156 C 762.613281 1017.160156 779.066406 1009.785156 791 997.875 C 802.933594 985.9375 810.304688 969.484375 810.304688 951.285156 C 810.304688 926.25 796.375 904.507812 775.835938 893.34375 L 773.546875 892.113281 L 773.941406 889.550781 C 774.339844 886.988281 774.527344 884.363281 774.527344 881.691406 C 774.527344 867.226562 768.671875 854.171875 759.195312 844.683594 C 749.722656 835.207031 736.664062 829.359375 722.1875 829.359375 C 717.042969 829.359375 712.085938 830.105469 707.378906 831.488281 L 703.964844 832.496094 L 702.839844 829.121094 C 692.695312 798.855469 664.144531 777.027344 630.464844 777.035156 C 610.222656 777.035156 591.875 784.921875 578.191406 797.773438 L 575.667969 800.160156 L 573.128906 797.773438 C 559.445312 784.921875 541.097656 777.035156 520.851562 777.035156 C 489.863281 777.035156 463.203125 795.527344 451.226562 822.074219 L 450.3125 824.132812 L 448.0625 824.246094 C 390.457031 827.304688 344.636719 875.003906 344.65625 933.394531 L 340.949219 933.394531 "/>
<path style=" stroke:none;fill-rule:nonzero;fill:rgb(32.939148%,77.249146%,73.329163%);fill-opacity:1;" d="M 568.359375 1094.90625 C 557.40625 1089.867188 548.617188 1082.972656 542.511719 1077.328125 C 536.390625 1071.683594 532.996094 1067.269531 532.890625 1067.144531 L 535.808594 1064.894531 L 538.640625 1067.289062 C 538.472656 1067.476562 533.972656 1072.746094 525.601562 1078.035156 C 517.230469 1083.328125 504.878906 1088.636719 489.195312 1088.636719 C 480.179688 1088.636719 470.097656 1086.886719 459.144531 1082.429688 C 446.894531 1077.433594 437.585938 1070.769531 430.589844 1063.5625 C 420.050781 1052.730469 414.738281 1040.777344 412.054688 1031.550781 C 409.367188 1022.304688 409.261719 1015.761719 409.261719 1015.511719 L 412.96875 1015.472656 L 413.386719 1019.160156 C 413.261719 1019.160156 411.617188 1019.347656 408.84375 1019.347656 C 403.453125 1019.347656 393.808594 1018.660156 383.125 1014.554688 C 372.417969 1010.453125 360.671875 1002.871094 351.488281 989.25 C 350.363281 987.5625 350.800781 985.273438 352.488281 984.128906 C 354.175781 982.980469 356.464844 983.417969 357.609375 985.128906 C 365.878906 997.332031 376.210938 1003.976562 385.769531 1007.660156 C 395.308594 1011.328125 404.074219 1011.953125 408.84375 1011.953125 C 410.074219 1011.953125 411.011719 1011.910156 411.65625 1011.867188 C 411.96875 1011.847656 412.199219 1011.828125 412.363281 1011.828125 L 412.53125 1011.804688 L 412.550781 1011.804688 L 412.65625 1012.660156 L 412.550781 1011.804688 L 412.65625 1012.660156 L 412.550781 1011.804688 C 413.574219 1011.679688 414.636719 1012.015625 415.40625 1012.703125 C 416.199219 1013.390625 416.65625 1014.390625 416.65625 1015.449219 C 416.65625 1015.785156 416.925781 1026.46875 422.738281 1039.132812 C 425.632812 1045.484375 429.878906 1052.316406 436.171875 1058.707031 C 442.460938 1065.101562 450.792969 1071.039062 461.933594 1075.578125 C 472.054688 1079.679688 481.136719 1081.242188 489.195312 1081.265625 C 503.171875 1081.265625 514.125 1076.535156 521.644531 1071.789062 C 525.414062 1069.433594 528.289062 1067.058594 530.203125 1065.3125 C 531.164062 1064.414062 531.890625 1063.707031 532.347656 1063.207031 C 532.597656 1062.957031 532.765625 1062.769531 532.871094 1062.644531 L 532.972656 1062.519531 L 532.996094 1062.5 L 533.660156 1063.082031 L 532.996094 1062.5 L 533.660156 1063.082031 L 532.996094 1062.5 C 533.703125 1061.667969 534.785156 1061.167969 535.910156 1061.1875 C 537.015625 1061.230469 538.054688 1061.75 538.742188 1062.644531 L 538.765625 1062.664062 C 539.054688 1063.039062 542.386719 1067.226562 548.074219 1072.390625 C 553.738281 1077.578125 561.777344 1083.761719 571.441406 1088.199219 C 573.296875 1089.054688 574.109375 1091.242188 573.253906 1093.09375 C 572.398438 1094.949219 570.191406 1095.78125 568.359375 1094.925781 "/>
<path style=" stroke:none;fill-rule:nonzero;fill:rgb(32.939148%,77.249146%,73.329163%);fill-opacity:1;" d="M 657.769531 1070.332031 C 656.539062 1056.3125 650 1046.210938 643.691406 1039.464844 C 640.523438 1036.113281 637.441406 1033.632812 635.152344 1031.988281 C 634.007812 1031.195312 633.089844 1030.59375 632.445312 1030.195312 C 632.132812 1030.007812 631.882812 1029.863281 631.734375 1029.78125 L 631.570312 1029.695312 L 631.527344 1029.675781 L 631.820312 1029.15625 L 631.527344 1029.675781 L 631.820312 1029.15625 L 631.527344 1029.675781 C 629.820312 1028.757812 629.089844 1026.675781 629.902344 1024.886719 C 630.027344 1024.65625 633.359375 1016.824219 633.339844 1007.933594 C 633.339844 1004.578125 632.882812 1001.101562 631.671875 997.789062 C 630.484375 994.476562 628.550781 991.3125 625.507812 988.460938 C 621.03125 984.273438 616.53125 981.691406 612.179688 980.109375 C 607.828125 978.503906 603.621094 977.941406 599.828125 977.941406 C 595.101562 977.941406 591 978.816406 588.101562 979.691406 C 586.644531 980.128906 585.519531 980.566406 584.75 980.878906 C 584.355469 981.046875 584.082031 981.171875 583.894531 981.253906 L 583.707031 981.335938 L 583.667969 981.359375 L 583.269531 980.566406 L 583.6875 981.359375 L 583.667969 981.359375 L 583.269531 980.566406 L 583.6875 981.359375 C 582.625 981.898438 581.398438 981.898438 580.335938 981.359375 C 579.273438 980.816406 578.542969 979.835938 578.355469 978.671875 L 579.210938 978.523438 L 578.355469 978.671875 L 579.210938 978.523438 L 578.355469 978.671875 C 578.335938 978.484375 576.898438 970.527344 571.023438 962.34375 C 568.089844 958.21875 564.070312 954.03125 558.550781 950.617188 C 553.007812 947.179688 545.949219 944.472656 536.765625 943.410156 C 533.371094 943.015625 530.164062 942.828125 527.121094 942.828125 C 517.625 942.828125 509.855469 944.597656 503.484375 947.203125 C 493.945312 951.097656 487.488281 956.949219 483.40625 961.800781 C 481.386719 964.238281 479.929688 966.425781 479.03125 967.964844 C 478.574219 968.734375 478.242188 969.359375 478.03125 969.757812 C 477.929688 969.964844 477.867188 970.109375 477.824219 970.214844 L 477.78125 970.296875 C 476.949219 972.171875 474.785156 973.027344 472.910156 972.214844 C 471.035156 971.402344 470.179688 969.214844 471.015625 967.363281 C 471.140625 967.050781 474.597656 959.175781 483.34375 951.242188 C 487.738281 947.285156 493.445312 943.304688 500.691406 940.347656 C 507.941406 937.390625 516.707031 935.433594 527.121094 935.433594 C 530.453125 935.433594 533.953125 935.640625 537.617188 936.058594 C 547.949219 937.265625 556.238281 940.410156 562.757812 944.515625 C 572.523438 950.679688 578.253906 958.886719 581.5 965.507812 C 584.769531 972.132812 585.605469 977.210938 585.644531 977.460938 L 582 978.066406 L 580.3125 974.777344 C 580.625 974.628906 588.5625 970.570312 599.828125 970.546875 C 604.367188 970.546875 609.449219 971.234375 614.71875 973.152344 C 619.96875 975.066406 625.382812 978.210938 630.546875 983.066406 C 634.503906 986.730469 637.066406 990.980469 638.628906 995.289062 C 640.191406 999.582031 640.734375 1003.914062 640.734375 1007.933594 C 640.710938 1018.929688 636.734375 1027.65625 636.628906 1027.925781 L 633.277344 1026.40625 L 635.003906 1023.136719 C 635.234375 1023.28125 641.941406 1026.84375 649.0625 1034.402344 C 656.1875 1041.964844 663.726562 1053.648438 665.140625 1069.707031 C 665.308594 1071.726562 663.808594 1073.515625 661.769531 1073.703125 C 659.746094 1073.871094 657.957031 1072.371094 657.769531 1070.332031 "/>
<path style=" stroke:none;fill-rule:nonzero;fill:rgb(32.939148%,77.249146%,73.329163%);fill-opacity:1;" d="M 589.0625 1026.53125 C 588.9375 1026.699219 585.75 1030.757812 580.273438 1034.902344 C 577.523438 1036.984375 574.191406 1039.070312 570.335938 1040.671875 C 566.503906 1042.253906 562.132812 1043.359375 557.382812 1043.359375 C 554.09375 1043.359375 550.613281 1042.816406 547.074219 1041.589844 C 541.511719 1039.671875 537.222656 1037.507812 533.722656 1035.195312 C 528.453125 1031.695312 525.039062 1027.949219 521.664062 1024.488281 C 518.292969 1020.992188 514.957031 1017.742188 509.460938 1014.515625 C 507.523438 1013.367188 505.066406 1012.617188 502.066406 1012.203125 C 499.066406 1011.765625 495.570312 1011.660156 491.738281 1011.660156 C 488.78125 1011.660156 485.632812 1011.722656 482.34375 1011.722656 C 474.824219 1011.722656 466.558594 1011.410156 458.101562 1009.222656 C 449.644531 1007.058594 441.023438 1002.953125 433.066406 995.539062 C 426.382812 989.3125 422.070312 982.292969 419.488281 975.277344 C 416.925781 968.257812 416.03125 961.28125 416.03125 954.96875 C 416.050781 940.640625 420.53125 929.8125 420.632812 929.539062 L 424.050781 930.957031 L 420.613281 932.332031 C 420.53125 932.082031 416.113281 921.042969 416.09375 906.964844 C 416.09375 899.445312 417.382812 890.988281 421.425781 882.953125 C 425.484375 874.914062 432.359375 867.375 443.042969 861.867188 C 450 858.261719 456.707031 856.691406 462.933594 856.699219 C 470.515625 856.699219 477.304688 858.976562 483.113281 862.296875 C 491.839844 867.277344 498.484375 874.523438 503.003906 880.519531 C 507.523438 886.515625 509.941406 891.28125 510.023438 891.425781 L 506.710938 893.09375 L 504.898438 889.863281 C 505.210938 889.71875 514.875 884.207031 528.226562 884.175781 C 533.121094 884.175781 538.535156 884.945312 544.054688 887.054688 C 549.59375 889.15625 555.21875 892.59375 560.550781 897.839844 C 564.632812 901.839844 567.359375 906.296875 569.046875 910.796875 C 570.710938 915.273438 571.316406 919.792969 571.316406 924 C 571.316406 930.582031 569.839844 936.453125 568.378906 940.722656 C 566.921875 944.992188 565.464844 947.679688 565.382812 947.824219 C 564.402344 949.617188 562.152344 950.261719 560.363281 949.285156 C 558.570312 948.304688 557.925781 946.054688 558.902344 944.265625 C 558.988281 944.097656 560.277344 941.683594 561.507812 937.976562 C 562.757812 934.289062 563.945312 929.289062 563.945312 924 C 563.945312 920.5 563.421875 916.898438 562.109375 913.355469 C 560.800781 909.835938 558.695312 906.378906 555.382812 903.109375 C 550.738281 898.550781 546.011719 895.71875 541.429688 893.945312 C 536.847656 892.195312 532.371094 891.574219 528.226562 891.574219 C 522.601562 891.550781 517.605469 892.757812 514.042969 893.96875 C 512.273438 894.570312 510.855469 895.175781 509.898438 895.613281 C 509.417969 895.84375 509.066406 896.027344 508.835938 896.132812 L 508.585938 896.277344 L 508.542969 896.300781 L 508.355469 895.988281 L 508.542969 896.300781 L 508.355469 895.988281 L 508.542969 896.300781 C 507.667969 896.800781 506.628906 896.902344 505.648438 896.613281 C 504.671875 896.320312 503.878906 895.65625 503.421875 894.757812 L 503.421875 894.738281 C 503.273438 894.425781 499.152344 886.515625 492.007812 878.878906 C 488.445312 875.0625 484.113281 871.320312 479.21875 868.578125 C 474.347656 865.835938 468.929688 864.09375 462.933594 864.085938 C 457.933594 864.09375 452.457031 865.316406 446.4375 868.429688 C 437.023438 873.304688 431.441406 879.570312 428.027344 886.28125 C 424.632812 892.988281 423.488281 900.257812 423.488281 906.964844 C 423.488281 913.210938 424.488281 918.9375 425.507812 923.0625 C 426.007812 925.125 426.527344 926.789062 426.902344 927.914062 C 427.089844 928.5 427.234375 928.914062 427.339844 929.207031 L 427.464844 929.519531 L 427.484375 929.582031 L 427.484375 929.601562 L 426.546875 929.957031 L 427.484375 929.582031 L 427.484375 929.601562 L 426.546875 929.957031 L 427.484375 929.582031 C 427.839844 930.476562 427.820312 931.476562 427.464844 932.371094 L 426.234375 931.851562 L 427.464844 932.351562 L 427.464844 932.371094 L 426.234375 931.851562 L 427.464844 932.351562 C 427.421875 932.414062 423.402344 942.410156 423.425781 954.96875 C 423.425781 960.59375 424.214844 966.695312 426.421875 972.734375 C 428.652344 978.753906 432.296875 984.710938 438.105469 990.144531 C 445.125 996.664062 452.457031 1000.144531 459.953125 1002.082031 C 467.410156 1004.015625 475.035156 1004.328125 482.34375 1004.328125 C 485.550781 1004.328125 488.675781 1004.265625 491.738281 1004.265625 C 495.695312 1004.265625 499.503906 1004.371094 503.109375 1004.871094 C 506.710938 1005.390625 510.128906 1006.328125 513.210938 1008.140625 C 517.394531 1010.597656 520.582031 1013.160156 523.269531 1015.660156 C 527.289062 1019.429688 530.164062 1022.929688 533.785156 1026.011719 C 537.429688 1029.09375 541.886719 1031.96875 549.488281 1034.613281 C 552.261719 1035.570312 554.863281 1035.964844 557.382812 1035.964844 C 560.988281 1035.964844 564.382812 1035.132812 567.503906 1033.839844 C 572.191406 1031.90625 576.191406 1028.90625 578.980469 1026.386719 C 580.375 1025.136719 581.460938 1023.992188 582.1875 1023.199219 C 582.5625 1022.78125 582.832031 1022.46875 583.019531 1022.261719 L 583.207031 1022.03125 L 583.25 1021.96875 C 584.5 1020.367188 586.8125 1020.09375 588.4375 1021.34375 C 590.039062 1022.59375 590.3125 1024.925781 589.0625 1026.53125 "/>
<path style=" stroke:none;fill-rule:nonzero;fill:rgb(32.939148%,77.249146%,73.329163%);fill-opacity:1;" d="M 709.835938 826.769531 C 712.378906 834.359375 713.503906 841.21875 713.503906 847.386719 C 713.503906 855.726562 711.460938 862.769531 708.359375 868.511719 C 703.714844 877.144531 696.863281 882.816406 691.21875 886.355469 C 685.574219 889.886719 681.074219 891.34375 680.867188 891.40625 L 679.761719 887.886719 L 683.449219 887.675781 C 683.449219 887.71875 683.492188 888.363281 683.492188 889.425781 C 683.46875 893.65625 683.03125 904.796875 677.824219 915.398438 C 675.222656 920.6875 671.347656 925.851562 665.664062 929.6875 C 659.996094 933.519531 652.582031 935.890625 643.335938 935.890625 C 633.277344 935.890625 625.320312 933.019531 619.363281 928.582031 C 614.90625 925.292969 611.554688 921.167969 609.074219 916.960938 C 605.347656 910.609375 603.496094 903.984375 602.515625 898.925781 C 601.558594 893.863281 601.496094 890.324219 601.496094 890.175781 L 605.179688 890.113281 L 606.429688 893.59375 C 606.203125 893.675781 601.160156 895.488281 594.414062 895.507812 C 589.644531 895.488281 583.917969 894.550781 578.667969 891.113281 C 576.066406 889.386719 573.609375 887.046875 571.566406 884.011719 C 569.503906 880.96875 567.839844 877.242188 566.691406 872.75 C 565.757812 869.074219 565.320312 865.625 565.320312 862.417969 C 565.320312 857.164062 566.464844 852.574219 568.171875 848.734375 C 570.753906 842.953125 574.546875 838.84375 577.667969 836.175781 C 580.835938 833.488281 583.332031 832.21875 583.542969 832.125 C 585.355469 831.203125 587.582031 831.945312 588.5 833.765625 C 589.414062 835.589844 588.664062 837.808594 586.855469 838.730469 L 586.75 838.519531 L 586.855469 838.722656 L 586.75 838.519531 L 586.855469 838.722656 C 586.625 838.824219 582.960938 840.804688 579.5 844.710938 C 577.753906 846.660156 576.066406 849.085938 574.796875 852.003906 C 573.546875 854.933594 572.710938 858.351562 572.710938 862.417969 C 572.710938 864.984375 573.046875 867.804688 573.835938 870.921875 C 574.816406 874.710938 576.148438 877.617188 577.667969 879.871094 C 579.980469 883.238281 582.667969 885.207031 585.5625 886.445312 C 588.4375 887.675781 591.5625 888.09375 594.414062 888.09375 C 597.101562 888.09375 599.558594 887.71875 601.285156 887.34375 C 602.160156 887.160156 602.847656 886.972656 603.328125 886.835938 C 603.558594 886.769531 603.722656 886.714844 603.828125 886.679688 L 603.933594 886.636719 L 603.953125 886.632812 L 604.472656 888.074219 L 603.953125 886.636719 L 603.953125 886.632812 L 604.472656 888.074219 L 603.953125 886.636719 C 605.078125 886.242188 606.328125 886.402344 607.304688 887.078125 C 608.265625 887.761719 608.867188 888.886719 608.886719 890.050781 L 608.886719 890.074219 C 608.867188 890.40625 609.222656 900.527344 613.78125 910.066406 C 616.054688 914.835938 619.324219 919.417969 623.988281 922.8125 C 628.675781 926.1875 634.796875 928.476562 643.335938 928.5 C 651.355469 928.476562 657.125 926.5 661.539062 923.542969 C 664.828125 921.3125 667.371094 918.5 669.390625 915.355469 C 672.390625 910.628906 674.097656 905.191406 675.015625 900.402344 C 675.953125 895.59375 676.097656 891.46875 676.097656 889.425781 C 676.097656 888.96875 676.078125 888.613281 676.078125 888.40625 L 676.078125 888.09375 C 675.972656 886.402344 677.035156 884.867188 678.636719 884.363281 L 678.824219 884.957031 L 678.636719 884.363281 L 678.824219 884.957031 L 678.636719 884.363281 C 678.824219 884.3125 685.925781 881.929688 692.738281 876.128906 C 696.152344 873.230469 699.484375 869.496094 701.964844 864.796875 C 704.441406 860.082031 706.109375 854.40625 706.109375 847.386719 C 706.109375 842.105469 705.152344 836.050781 702.839844 829.121094 C 702.195312 827.1875 703.234375 825.09375 705.171875 824.441406 C 707.085938 823.792969 709.191406 824.835938 709.835938 826.769531 "/>
<path style=" stroke:none;fill-rule:nonzero;fill:rgb(32.939148%,77.249146%,73.329163%);fill-opacity:1;" d="M 633.132812 1001.226562 C 634.671875 993.832031 637.214844 987.792969 640.460938 982.917969 C 645.335938 975.609375 651.792969 971.027344 658.375 968.402344 C 664.996094 965.757812 671.722656 964.964844 677.535156 964.964844 C 687.050781 964.988281 694.132812 967.070312 694.339844 967.132812 L 693.300781 970.671875 L 689.761719 971.714844 C 689.699219 971.484375 687.949219 965.507812 687.949219 957.011719 C 687.949219 951.222656 688.761719 944.285156 691.550781 937.226562 C 694.320312 930.164062 699.109375 923.019531 706.878906 917.128906 C 715.960938 910.234375 726.0625 908.128906 734.789062 908.128906 C 748.597656 908.152344 759.257812 913.191406 759.53125 913.292969 C 761.382812 914.148438 762.175781 916.355469 761.320312 918.210938 C 760.445312 920.042969 758.238281 920.855469 756.40625 919.980469 L 757.074219 918.5625 L 756.40625 919.980469 L 757.074219 918.5625 L 756.40625 919.980469 C 756.363281 919.960938 746.574219 915.503906 734.789062 915.523438 C 727.1875 915.523438 718.875 917.292969 711.355469 923.019531 C 704.714844 928.082031 700.777344 933.976562 698.402344 939.933594 C 696.050781 945.890625 695.339844 951.929688 695.339844 957.011719 C 695.339844 960.738281 695.714844 963.96875 696.113281 966.214844 C 696.300781 967.339844 696.488281 968.214844 696.632812 968.796875 C 696.714844 969.109375 696.757812 969.320312 696.800781 969.464844 L 696.839844 969.609375 L 696.863281 969.652344 L 696.007812 969.882812 L 696.839844 969.632812 L 696.863281 969.652344 L 696.007812 969.882812 L 696.839844 969.632812 C 697.238281 970.945312 696.863281 972.339844 695.902344 973.296875 C 694.964844 974.253906 693.550781 974.609375 692.257812 974.214844 L 692.28125 974.171875 L 692.257812 974.214844 L 692.28125 974.171875 L 692.257812 974.214844 C 692.070312 974.152344 685.675781 972.359375 677.535156 972.359375 C 670.660156 972.359375 662.644531 973.628906 655.832031 977.960938 C 652.417969 980.109375 649.292969 983.023438 646.605469 987.023438 C 643.941406 991.019531 641.753906 996.144531 640.378906 1002.746094 C 639.941406 1004.726562 637.984375 1006.015625 635.984375 1005.601562 C 634.007812 1005.183594 632.714844 1003.226562 633.132812 1001.226562 "/>
<path style=" stroke:none;fill-rule:nonzero;fill:rgb(32.939148%,77.249146%,73.329163%);fill-opacity:1;" d="M 578.753906 792.625 C 583.355469 798.425781 586.207031 804.445312 587.851562 810.050781 C 589.519531 815.664062 590.019531 820.871094 590.019531 825.140625 C 590.019531 831.796875 588.8125 836.183594 588.75 836.417969 L 585.1875 835.425781 L 583.25 832.277344 C 583.582031 832.097656 591.644531 827.097656 603.496094 827.0625 C 608.078125 827.0625 613.21875 827.84375 618.574219 829.964844 C 623.925781 832.097656 629.488281 835.582031 634.921875 840.867188 C 639.484375 845.320312 642.566406 850.160156 644.441406 855.035156 C 646.335938 859.898438 647.042969 864.765625 647.042969 869.300781 C 647.023438 876.558594 645.253906 882.980469 643.503906 887.636719 C 641.753906 892.28125 640.003906 895.175781 639.898438 895.320312 C 638.835938 897.070312 636.566406 897.613281 634.839844 896.550781 C 633.089844 895.488281 632.527344 893.21875 633.589844 891.46875 L 634.941406 892.300781 L 633.589844 891.488281 L 633.589844 891.46875 L 634.941406 892.300781 L 633.589844 891.488281 C 633.609375 891.449219 635.152344 888.886719 636.652344 884.824219 C 638.171875 880.773438 639.648438 875.234375 639.648438 869.300781 C 639.648438 865.527344 639.066406 861.597656 637.546875 857.703125 C 636.046875 853.796875 633.609375 849.90625 629.757812 846.164062 C 624.96875 841.496094 620.28125 838.597656 615.84375 836.839844 C 611.429688 835.085938 607.242188 834.457031 603.496094 834.457031 C 598.640625 834.449219 594.476562 835.507812 591.5625 836.5625 C 590.101562 837.09375 588.9375 837.613281 588.1875 837.996094 C 587.8125 838.191406 587.519531 838.347656 587.332031 838.445312 L 587.144531 838.550781 L 587.125 838.566406 L 586.5625 837.640625 L 587.144531 838.566406 L 587.125 838.566406 L 586.5625 837.640625 L 587.144531 838.566406 C 585.832031 839.363281 584.1875 839.289062 582.980469 838.371094 C 581.75 837.453125 581.210938 835.898438 581.625 834.425781 C 581.6875 834.179688 582.648438 830.527344 582.648438 825.140625 C 582.648438 821.457031 582.210938 816.957031 580.773438 812.152344 C 579.355469 807.339844 576.941406 802.222656 572.960938 797.214844 C 571.710938 795.617188 571.960938 793.292969 573.566406 792.023438 C 575.167969 790.753906 577.480469 791.023438 578.753906 792.625 "/>
<path style=" stroke:none;fill-rule:nonzero;fill:rgb(32.939148%,77.249146%,73.329163%);fill-opacity:1;" d="M 740.722656 1021.054688 C 740.015625 1007.785156 735.746094 999.144531 731.746094 993.730469 C 729.746094 991 727.789062 989.125 726.375 987.9375 C 725.664062 987.335938 725.101562 986.917969 724.726562 986.648438 C 724.539062 986.523438 724.394531 986.4375 724.3125 986.398438 L 724.226562 986.335938 L 725.351562 984.441406 L 724.25 986.335938 L 724.226562 986.335938 L 725.351562 984.441406 L 724.25 986.335938 C 722.480469 985.316406 721.875 983.066406 722.894531 981.296875 C 723.917969 979.523438 726.1875 978.921875 727.957031 979.941406 C 728.269531 980.128906 732.890625 982.855469 737.683594 989.3125 C 742.453125 995.769531 747.347656 1005.953125 748.117188 1020.679688 C 748.222656 1022.699219 746.636719 1024.449219 744.617188 1024.550781 C 742.578125 1024.65625 740.828125 1023.09375 740.722656 1021.054688 "/>
<path style=" stroke:none;fill-rule:nonzero;fill:rgb(32.939148%,77.249146%,73.329163%);fill-opacity:1;" d="M 440.730469 525.96875 C 422.4375 525.96875 405.210938 518.847656 392.285156 505.894531 C 379.332031 492.96875 372.214844 475.746094 372.214844 457.453125 C 372.214844 439.160156 379.332031 421.933594 392.285156 409.007812 C 405.210938 396.054688 422.4375 388.9375 440.730469 388.9375 C 459.023438 388.9375 476.246094 396.054688 489.171875 409.007812 C 502.125 421.960938 509.246094 439.160156 509.246094 457.453125 C 509.246094 475.746094 502.125 492.96875 489.171875 505.894531 C 476.246094 518.847656 459.023438 525.96875 440.730469 525.96875 Z M 440.730469 393.042969 C 423.53125 393.042969 407.347656 399.753906 395.1875 411.910156 C 383.03125 424.070312 376.320312 440.253906 376.320312 457.453125 C 376.320312 474.648438 383.03125 490.835938 395.1875 502.992188 C 407.347656 515.152344 423.53125 521.863281 440.730469 521.863281 C 457.925781 521.863281 474.113281 515.152344 486.269531 502.992188 C 498.429688 490.835938 505.140625 474.648438 505.140625 457.453125 C 505.140625 440.253906 498.429688 424.070312 486.269531 411.910156 C 474.113281 399.753906 457.925781 393.042969 440.730469 393.042969 Z M 440.730469 393.042969 "/>
<path style=" stroke:none;fill-rule:nonzero;fill:rgb(32.939148%,77.249146%,73.329163%);fill-opacity:1;" d="M 509.355469 213.609375 L 509.355469 332.867188 L 628.613281 332.867188 L 628.613281 213.609375 Z M 624.816406 329.070312 L 513.074219 329.070312 L 513.074219 217.332031 L 624.816406 217.332031 Z M 624.816406 329.070312 "/>
<path style=" stroke:none;fill-rule:nonzero;fill:rgb(32.939148%,77.249146%,73.329163%);fill-opacity:1;" d="M 730.832031 398 L 662.527344 398 L 628.378906 457.5625 L 662.527344 517.121094 L 730.832031 517.121094 L 764.984375 457.5625 Z M 728.972656 513.894531 L 664.386719 513.894531 L 632.09375 457.5625 L 664.386719 401.226562 L 728.972656 401.226562 L 761.269531 457.5625 Z M 728.972656 513.894531 "/>
</g>
</svg>
